<svg xmlns="http://www.w3.org/2000/svg" xmlns:xlink="http://www.w3.org/1999/xlink" width="3220" zoomAndPan="magnify" viewBox="0 0 2415 1012.49997" height="1350" preserveAspectRatio="xMidYMid meet" version="1.2"><defs><clipPath id="97c4bca67f"><path d="M 1298 82.667969 L 1961.441406 82.667969 L 1961.441406 928.960938 L 1298 928.960938 Z M 1298 82.667969 "/></clipPath><clipPath id="b74a6cb02f"><path d="M 453.183594 82.667969 L 1116.59375 82.667969 L 1116.59375 928.960938 L 453.183594 928.960938 Z M 453.183594 82.667969 "/></clipPath></defs><g id="d480a1f382"><g clip-rule="nonzero" clip-path="url(#97c4bca67f)"><path style=" stroke:none;fill-rule:nonzero;fill:#ffffff;fill-opacity:1;" d="M 1960.527344 165.46875 C 1951.457031 35.789062 1878.195312 83.980469 1869.703125 138.355469 C 1865.957031 162.285156 1859.351562 180.738281 1860.726562 250.097656 C 1860.851562 256.390625 1856.355469 270.9375 1854.839844 276.574219 C 1845.738281 310.480469 1789.539062 391.253906 1768.667969 420.617188 C 1724.675781 482.546875 1652.914062 492.179688 1646.605469 488.339844 C 1653.847656 465.484375 1723.269531 388.460938 1733.292969 387.195312 C 1745.90625 376.6875 1763.296875 360.609375 1770.574219 332.476562 C 1790.257812 256.25 1719.882812 249.847656 1688.425781 276.746094 C 1675.453125 287.847656 1678.734375 287.300781 1665.089844 297.445312 C 1632.195312 321.941406 1599.976562 370.726562 1537.203125 410.519531 C 1473.664062 450.808594 1383.636719 479.175781 1335.445312 569.96875 C 1276.308594 681.355469 1303.285156 859.679688 1312.902344 906.074219 C 1313.574219 909.324219 1315.542969 923.355469 1320.300781 928.945312 L 1506.652344 928.945312 C 1516.894531 927.136719 1517.859375 921.953125 1519.484375 908.433594 C 1520.265625 902 1516.816406 863.441406 1524.167969 817 C 1535.796875 743.597656 1615.804688 696.996094 1639.984375 690.269531 C 1666.070312 683.007812 1791.445312 598.492188 1799.71875 586.4375 C 1802.542969 582.300781 1811.519531 575.839844 1814.628906 569 C 1820.902344 555.234375 1912.570312 419.976562 1921.828125 401.917969 C 1931.023438 383.917969 1942.417969 356.722656 1944.667969 339.910156 C 1946.898438 323.097656 1966.226562 247.117188 1960.527344 165.46875 "/></g><g clip-rule="nonzero" clip-path="url(#b74a6cb02f)"><path style=" stroke:none;fill-rule:nonzero;fill:#ffffff;fill-opacity:1;" d="M 454.230469 165.46875 C 463.300781 35.789062 536.5625 83.980469 545.054688 138.355469 C 548.804688 162.285156 555.40625 180.738281 554.03125 250.097656 C 553.90625 256.390625 558.402344 270.9375 559.917969 276.574219 C 569.019531 310.480469 625.21875 391.253906 646.074219 420.617188 C 690.082031 482.546875 761.847656 492.179688 768.152344 488.339844 C 760.910156 465.484375 691.503906 388.460938 681.464844 387.195312 C 668.851562 376.6875 651.445312 360.609375 644.1875 332.476562 C 624.5 256.25 694.875 249.847656 726.332031 276.746094 C 739.304688 287.847656 736.027344 287.300781 749.65625 297.445312 C 782.546875 321.941406 814.785156 370.726562 877.558594 410.519531 C 941.09375 450.808594 1031.121094 479.175781 1079.3125 569.96875 C 1138.449219 681.355469 1111.488281 859.679688 1101.839844 906.074219 C 1101.167969 909.324219 1099.21875 923.355469 1094.457031 928.945312 L 908.09375 928.945312 C 897.867188 927.136719 896.882812 921.953125 895.257812 908.433594 C 894.496094 902 897.945312 863.441406 890.578125 817 C 878.960938 743.597656 798.953125 696.996094 774.773438 690.269531 C 748.6875 683.007812 623.316406 598.492188 615.039062 586.4375 C 612.214844 582.300781 603.238281 575.839844 600.132812 569 C 593.855469 555.234375 502.1875 419.976562 492.929688 401.917969 C 483.734375 383.917969 472.339844 356.722656 470.09375 339.910156 C 467.859375 323.097656 448.53125 247.117188 454.230469 165.46875 "/></g></g></svg>